Coordinates
version=1
nRows=26
nColumns=24
inDegrees=yes

Units are S.I. units (second, meters, Newtons, ...)
If the header above contains a line with 'inDegrees', this indicates whether rotational values are in degrees (yes) or radians (no).

endheader
time	pelvis_tilt	pelvis_list	pelvis_rotation	pelvis_tx	pelvis_ty	pelvis_tz	hip_flexion_r	hip_adduction_r	hip_rotation_r	knee_angle_r	ankle_angle_r	subtalar_angle_r	mtp_angle_r	hip_flexion_l	hip_adduction_l	hip_rotation_l	knee_angle_l	ankle_angle_l	subtalar_angle_l	mtp_angle_l	lumbar_extension	lumbar_bending	lumbar_rotation
      1.18000000	      6.04639346	    -29.18961205	    -82.25611841	      0.60849400	      1.01034646	     -0.39625287	    -14.54002574	     -5.90764716	     -3.72998901	      8.37212284	      1.60469251	    -11.39338509	      0.00000000	    -52.16082561	      0.73230183	     19.24928544	      4.31045713	     11.22353033	    -24.50475556	      0.00000000	    -45.30685671	     -0.05672017	     -9.79114274
      1.19000000	      5.93593016	    -29.27226694	    -82.18941509	      0.60698292	      1.00992297	     -0.39565304	    -14.51141501	     -5.64652351	     -3.60162107	      7.10982593	      1.24814902	    -11.44318338	      0.00000000	    -52.47442873	      0.51566454	     19.16293000	      3.45390095	     10.88891656	    -24.37222028	      0.00000000	    -45.38660256	      0.23946371	     -9.91517338
      1.20000000	      5.39340006	    -29.62669646	    -82.36060431	      0.60508212	      1.00983519	     -0.39451653	    -14.82949074	     -4.92348253	     -2.83148635	      5.98235575	     -0.01576045	    -12.92245546	      0.00000000	    -52.95799419	      0.08623322	     17.35237939	      2.37388052	     11.54061048	    -22.13129515	      0.00000000	    -45.62556940	      0.84625358	     -9.68932184
      1.21000000	      4.97583183	    -29.86143006	    -82.40620495	      0.60329120	      1.00989284	     -0.39335012	    -14.98757286	     -4.31988347	     -2.75173687	      4.65949168	     -0.78715022	    -13.00066614	      0.00000000	    -53.33907110	     -0.34327306	     16.69264502	      1.38839615	     11.01319465	    -21.85467043	      0.00000000	    -45.75484320	      1.38194478	     -9.64543347
      1.22000000	      4.47224517	    -30.17692364	    -82.54770654	      0.60127216	      1.01025606	     -0.39189672	    -15.34576111	     -3.62950206	     -2.07222735	      3.56910184	     -2.19863152	    -14.15428544	      0.00000000	    -53.59982947	     -0.74029333	     14.77666654	     -0.02806507	     11.57355668	    -19.41681562	      0.00000000	    -45.94062088	      1.95688211	     -9.52877081
      1.23000000	      4.10268488	    -30.38191269	    -82.52776762	      0.59929468	      1.01081331	     -0.39046461	    -15.52709449	     -3.05698279	     -2.10196255	      2.25680450	     -2.92649235	    -14.08915579	      0.00000000	    -53.75374220	     -1.14619810	     13.99254186	     -1.32794697	     10.75337480	    -19.31348167	      0.00000000	    -46.04059903	      2.44375252	     -9.57510251
      1.24000000	      3.32969519	    -30.81051831	    -82.79751583	      0.59725299	      1.01170017	     -0.38857728	    -15.97935379	     -2.12476497	     -1.85482836	      1.07786960	     -3.72518016	    -14.18476515	      0.00000000	    -53.95516269	     -1.72289712	     11.70091822	     -3.01412161	     11.03973335	    -16.87457944	      0.00000000	    -46.24907167	      3.25038512	     -9.35537630
      1.25000000	      2.74512415	    -31.11985767	    -82.92158309	      0.59524739	      1.01275620	     -0.38669338	    -16.30781403	     -1.37232659	     -1.94706331	     -0.20587752	     -3.95858798	    -13.83500107	      0.00000000	    -53.92681452	     -2.22337805	     10.05537955	     -4.83268944	     10.50277717	    -15.75051525	      0.00000000	    -46.36640732	      3.91463842	     -9.24182734
      1.26000000	      2.36390243	    -31.41234477	    -82.91165990	      0.59334198	      1.01401703	     -0.38485337	    -16.67564630	     -0.80265224	     -1.93279480	     -1.47816134	     -4.15211189	    -13.76061380	      0.00000000	    -53.81008623	     -2.61662326	      8.93893363	     -6.70296333	      9.19835510	    -15.69336343	      0.00000000	    -46.48088143	      4.43676155	     -9.36348440
      1.27000000	      1.61009664	    -31.82396659	    -83.28887761	      0.59114370	      1.01540014	     -0.38279261	    -17.15875211	      0.05372777	     -1.91740430	     -2.68974933	     -3.81511071	    -13.19522814	      0.00000000	    -53.65773239	     -3.10633551	      7.11218870	     -8.89546929	      8.14123852	    -15.02395528	      0.00000000	    -46.67785007	      5.11352602	     -9.09466943
      1.28000000	      1.27948301	    -32.07682968	    -83.31993020	      0.58900829	      1.01688913	     -0.38092834	    -17.52534279	      0.54956631	     -2.42810182	     -3.96857663	     -2.90342456	    -12.09164662	      0.00000000	    -53.02648463	     -3.50443698	      5.18963711	    -11.59162837	      7.29072607	    -13.63833870	      0.00000000	    -46.74820296	      5.52516508	     -9.16757085
      1.29000000	      1.00619552	    -32.38353696	    -83.34989497	      0.58691516	      1.01848102	     -0.37914005	    -18.14769929	      1.03187543	     -2.36567067	     -4.84414582	     -2.38442868	    -12.10017488	      0.00000000	    -52.40435906	     -3.83036123	      3.95908011	    -14.30878594	      5.49260107	    -13.74351007	      0.00000000	    -46.87779358	      5.87063060	     -9.25423435
      1.30000000	      0.85839808	    -32.71217315	    -83.29853516	      0.58478447	      1.02012694	     -0.37755798	    -18.92405063	      1.43436164	     -2.25053690	     -5.48871003	     -1.78753424	    -12.18284888	      0.00000000	    -51.60843824	     -4.13022501	      2.85465844	    -17.33947494	      3.73244485	    -13.89039204	      0.00000000	    -47.04880502	      6.11845566	     -9.37845171
      1.31000000	      0.39293306	    -32.86824958	    -83.67116557	      0.58218682	      1.02154443	     -0.37598690	    -19.44417517	      2.01934292	     -2.04649863	     -6.18328344	     -0.79434076	    -11.75200195	      0.00000000	    -50.54890250	     -4.45810012	      1.36885342	    -20.46831108	      1.46943982	    -14.48742497	      0.00000000	    -47.03672917	      6.38550766	     -9.07344629
      1.32000000	      0.29136555	    -33.04470720	    -83.70411911	      0.57986543	      1.02305617	     -0.37478042	    -20.14746054	      2.35080703	     -2.00068052	     -6.63452403	      0.19272449	    -11.46119079	      0.00000000	    -49.34363472	     -4.67153171	      0.54802837	    -23.78122848	     -1.03406232	    -15.54806612	      0.00000000	    -47.09798000	      6.48054595	     -9.06891692
      1.33000000	      0.22902471	    -33.20833007	    -83.70045366	      0.57755890	      1.02452645	     -0.37384645	    -20.93493790	      2.67354865	     -1.78669841	     -6.86214774	      0.98966502	    -11.51971570	      0.00000000	    -47.99769892	     -4.87874158	     -0.12454094	    -27.22935289	     -3.68347333	    -16.93112024	      0.00000000	    -47.16652749	      6.53737550	     -9.06337313
      1.34000000	      0.27993075	    -33.34061251	    -83.62597852	      0.57527668	      1.02594057	     -0.37316913	    -21.76660821	      2.91553217	     -1.49623952	     -6.92816586	      1.70894865	    -11.81059036	      0.00000000	    -46.53531171	     -4.99582542	     -0.51706951	    -30.69908689	     -6.64045305	    -18.83107775	      0.00000000	    -47.21980712	      6.48633777	     -9.05092372
      1.35000000	      0.26871403	    -33.43516903	    -83.52023289	      0.57312271	      1.02722279	     -0.37282725	    -22.56826359	      3.22804565	     -1.22826289	     -6.92423698	      2.29098511	    -12.11738211	      0.00000000	    -44.90484810	     -5.21048341	     -0.90356681	    -34.28479212	     -9.28264739	    -20.60164836	      0.00000000	    -47.27316982	      6.52531496	     -9.04819964
      1.36000000	      0.61503630	    -33.58749013	    -83.30632820	      0.57112727	      1.02866809	     -0.37273924	    -23.53394857	      3.19866715	     -0.96471021	     -6.76817244	      2.87458956	    -12.50668216	      0.00000000	    -43.37485461	     -5.01643022	     -0.86303394	    -37.62315866	    -12.56269307	    -23.32955031	      0.00000000	    -47.42133654	      6.25334434	     -9.09875894
      1.37000000	      0.85116567	    -33.66357004	    -83.07652825	      0.56923102	      1.02994696	     -0.37290525	    -24.39606087	      3.26569082	     -0.94475953	     -6.59661459	      3.48297180	    -12.60305633	      0.00000000	    -41.67138174	     -4.95944978	     -0.91902028	    -41.01464139	    -15.15876005	    -25.61172347	      0.00000000	    -47.51290110	      6.09046207	     -9.10903543
      1.38000000	      1.05623045	    -33.59074750	    -82.80708644	      0.56749359	      1.03100896	     -0.37325409	    -25.09655112	      3.34981108	     -1.09318047	     -6.39057894	      4.05332906	    -12.59801514	      0.00000000	    -39.74727272	     -4.94496683	     -0.98156852	    -44.38525799	    -16.96300862	    -27.49579649	      0.00000000	    -47.46245787	      5.97791779	     -9.08158237
      1.39000000	      1.38664064	    -33.58767399	    -82.47233852	      0.56594980	      1.03215083	     -0.37387591	    -25.88508049	      3.31423958	     -1.40101723	     -6.16720808	      4.66734064	    -12.38437027	      0.00000000	    -37.93045508	     -4.77296295	     -0.89703147	    -47.52641672	    -18.30220505	    -29.31076184	      0.00000000	    -47.52128782	      5.78077861	     -9.11871487
      1.40000000	      1.68540910	    -33.92818105	    -82.49164470	      0.56391245	      1.03367469	     -0.37455810	    -27.11114958	      3.20821933	     -1.41317118	     -5.74088431	      4.99704040	    -12.30784845	      0.00000000	    -36.63634833	     -4.51573853	     -1.29634957	    -50.27049662	    -18.34592227	    -29.79043326	      0.00000000	    -47.96967803	      5.36423241	     -8.78769497
      1.41000000	      2.38550102	    -33.63795376	    -81.75477875	      0.56325105	      1.03462166	     -0.37557033	    -27.50589046	      2.81139701	     -3.00413569	     -5.84650521	      6.77800696	     -9.92690208	      0.00000000	    -34.53108661	     -3.94209561	     -0.65640371	    -52.95817273	    -19.35202580	    -32.28314779	      0.00000000	    -47.76607867	      5.07559431	     -9.12398902
      1.42000000	      2.89448880	    -33.54327698	    -81.37722125	      0.56197604	      1.03572912	     -0.37662210	    -28.27309431	      2.58569967	     -3.28230399	     -5.48238622	      7.25160559	     -9.76109940	      0.00000000	    -32.71955472	     -3.48299124	     -0.57225866	    -55.37771229	    -18.41625373	    -32.72527105	      0.00000000	    -47.79857032	      4.69817304	     -9.14629913
      1.43000000	      3.44389254	    -33.38397034	    -81.01188434	      0.56075930	      1.03677711	     -0.37779715	    -28.94629892	      2.28974744	     -3.74233728	     -5.17079890	      7.80589335	     -9.27041411	      0.00000000	    -30.88567165	     -2.94241831	     -0.54543357	    -57.52116911	    -16.74922184	    -32.59407180	      0.00000000	    -47.78017770	      4.26042789	     -9.16062082
